REM DIRINDEX 1\2\5,1\2\6,1\2\7,1\2\8,1\3\9,1\3\10,1\3\11,1\4\12,1\4\13,1\4\14,1\4\15,1\4\16
REM DIRNAME cjc034,folder01,folder02,folder03,folder04,folder05,folder06,folder07,folder08,folder09,folder10,folder11,folder12,folder13,folder14,folder15
TITLE ""
FILE "1200_2_sec03_1142_1160.mp3" MP3
  TRACK 01 AUDIO
    TITLE "0:"
    INDEX 01 00:00:00
  TRACK 02 AUDIO
    TITLE "10:cjc034_02356"
    INDEX 01 00:00:15
  TRACK 03 AUDIO
    TITLE "0:"
    INDEX 01 00:02:63
  TRACK 04 AUDIO
    TITLE "9:cjc034_02357"
    INDEX 01 00:02:65
  TRACK 05 AUDIO
    TITLE "0:"
    INDEX 01 00:04:27
  TRACK 06 AUDIO
    TITLE "10:cjc034_02358"
    INDEX 01 00:05:12
  TRACK 07 AUDIO
    TITLE "0:"
    INDEX 01 00:06:69
  TRACK 08 AUDIO
    TITLE "9:cjc034_02359"
    INDEX 01 00:07:00
  TRACK 09 AUDIO
    TITLE "0:"
    INDEX 01 00:08:30
  TRACK 10 AUDIO
    TITLE "10:cjc034_02360"
    INDEX 01 00:09:10
  TRACK 11 AUDIO
    TITLE "0:"
    INDEX 01 00:10:51
  TRACK 12 AUDIO
    TITLE "9:cjc034_02361"
    INDEX 01 00:10:55
  TRACK 13 AUDIO
    TITLE "0:"
    INDEX 01 00:12:01
  TRACK 14 AUDIO
    TITLE "10:cjc034_02362"
    INDEX 01 00:12:61
  TRACK 15 AUDIO
    TITLE "0:"
    INDEX 01 00:14:17
  TRACK 16 AUDIO
    TITLE "9:cjc034_02363"
    INDEX 01 00:14:21
  TRACK 17 AUDIO
    TITLE "0:"
    INDEX 01 00:17:04
  TRACK 18 AUDIO
    TITLE "10:cjc034_02364"
    INDEX 01 00:17:63
  TRACK 19 AUDIO
    TITLE "0:"
    INDEX 01 00:20:16
  TRACK 20 AUDIO
    TITLE "9:cjc034_02365"
    INDEX 01 00:20:20
  TRACK 21 AUDIO
    TITLE "0:"
    INDEX 01 00:21:33
  TRACK 22 AUDIO
    TITLE "10:cjc034_02366"
    INDEX 01 00:22:15
  TRACK 23 AUDIO
    TITLE "0:"
    INDEX 01 00:24:00
  TRACK 24 AUDIO
    TITLE "9:cjc034_02367"
    INDEX 01 00:24:04
  TRACK 25 AUDIO
    TITLE "0:"
    INDEX 01 00:27:22
  TRACK 26 AUDIO
    TITLE "10:cjc034_02368"
    INDEX 01 00:28:06
  TRACK 27 AUDIO
    TITLE "0:"
    INDEX 01 00:31:12
  TRACK 28 AUDIO
    TITLE "9:cjc034_02369"
    INDEX 01 00:31:18
  TRACK 29 AUDIO
    TITLE "0:"
    INDEX 01 00:33:01
  TRACK 30 AUDIO
    TITLE "10:cjc034_02370"
    INDEX 01 00:33:62
  TRACK 31 AUDIO
    TITLE "0:"
    INDEX 01 00:34:67
  TRACK 32 AUDIO
    TITLE "9:cjc034_02371"
    INDEX 01 00:34:73
  TRACK 33 AUDIO
    TITLE "0:"
    INDEX 01 00:36:17
  TRACK 34 AUDIO
    TITLE "10:cjc034_02372"
    INDEX 01 00:37:03
  TRACK 35 AUDIO
    TITLE "0:"
    INDEX 01 00:40:21
  TRACK 36 AUDIO
    TITLE "9:cjc034_02373"
    INDEX 01 00:40:26
  TRACK 37 AUDIO
    TITLE "0:"
    INDEX 01 00:42:10
  TRACK 38 AUDIO
    TITLE "10:cjc034_02374"
    INDEX 01 00:42:68
  TRACK 39 AUDIO
    TITLE "0:"
    INDEX 01 00:46:35
  TRACK 40 AUDIO
    TITLE "9:cjc034_02375"
    INDEX 01 00:46:37
  TRACK 41 AUDIO
    TITLE "0:"
    INDEX 01 00:50:54
  TRACK 42 AUDIO
    TITLE "10:cjc034_02376"
    INDEX 01 00:51:36
  TRACK 43 AUDIO
    TITLE "0:"
    INDEX 01 00:52:61
  TRACK 44 AUDIO
    TITLE "9:cjc034_02377"
    INDEX 01 00:52:69
  TRACK 45 AUDIO
    TITLE "0:"
    INDEX 01 00:54:07
  TRACK 46 AUDIO
    TITLE "10:cjc034_02378"
    INDEX 01 00:54:64
  TRACK 47 AUDIO
    TITLE "0:"
    INDEX 01 00:58:32
  TRACK 48 AUDIO
    TITLE "9:cjc034_02379"
    INDEX 01 00:58:34
  TRACK 49 AUDIO
    TITLE "0:"
    INDEX 01 01:00:04
  TRACK 50 AUDIO
    TITLE "10:cjc034_02380"
    INDEX 01 01:00:62
  TRACK 51 AUDIO
    TITLE "0:"
    INDEX 01 01:02:44
  TRACK 52 AUDIO
    TITLE "9:cjc034_02381"
    INDEX 01 01:02:50
  TRACK 53 AUDIO
    TITLE "0:"
    INDEX 01 01:05:24
  TRACK 54 AUDIO
    TITLE "10:cjc034_02382"
    INDEX 01 01:06:06
  TRACK 55 AUDIO
    TITLE "0:"
    INDEX 01 01:09:12
  TRACK 56 AUDIO
    TITLE "9:cjc034_02383"
    INDEX 01 01:09:16
  TRACK 57 AUDIO
    TITLE "0:"
    INDEX 01 01:10:35
  TRACK 58 AUDIO
    TITLE "10:cjc034_02384"
    INDEX 01 01:11:19
  TRACK 59 AUDIO
    TITLE "0:"
    INDEX 01 01:13:69
  TRACK 60 AUDIO
    TITLE "9:cjc034_02385"
    INDEX 01 01:14:04
  TRACK 61 AUDIO
    TITLE "0:"
    INDEX 01 01:15:37
  TRACK 62 AUDIO
    TITLE "10:cjc034_02386"
    INDEX 01 01:16:24
  TRACK 63 AUDIO
    TITLE "0:"
    INDEX 01 01:17:49
  TRACK 64 AUDIO
    TITLE "9:cjc034_02387"
    INDEX 01 01:17:53
  TRACK 65 AUDIO
    TITLE "0:"
    INDEX 01 01:19:01
  TRACK 66 AUDIO
    TITLE "10:cjc034_02388"
    INDEX 01 01:19:60
  TRACK 67 AUDIO
    TITLE "0:"
    INDEX 01 01:23:13
  TRACK 68 AUDIO
    TITLE "9:cjc034_02389"
    INDEX 01 01:23:18
  TRACK 69 AUDIO
    TITLE "0:"
    INDEX 01 01:24:45
  TRACK 70 AUDIO
    TITLE "10:cjc034_02390"
    INDEX 01 01:25:29
  TRACK 71 AUDIO
    TITLE "0:"
    INDEX 01 01:27:08
  TRACK 72 AUDIO
    TITLE "9:cjc034_02391"
    INDEX 01 01:27:12
  TRACK 73 AUDIO
    TITLE "0:"
    INDEX 01 01:28:41
  TRACK 74 AUDIO
    TITLE "10:cjc034_02392"
    INDEX 01 01:29:23
  TRACK 75 AUDIO
    TITLE "0:"
    INDEX 01 01:30:71
  TRACK 76 AUDIO
    TITLE "9:cjc034_02393"
    INDEX 01 01:31:00
  TRACK 77 AUDIO
    TITLE "0:"
    INDEX 01 01:35:02
